<svg width="387" height="374" viewBox="0 0 387 374" fill="none" xmlns="http://www.w3.org/2000/svg">
<path d="M295.76 7.72504H86.5083C76.0437 7.72504 67.5603 16.1431 67.5603 26.527V78.0951C67.5603 91.6394 78.6252 102.62 92.2753 102.62C105.925 102.62 116.99 91.6399 116.99 78.0951C116.99 91.6394 128.055 102.62 141.705 102.62C155.355 102.62 166.42 91.6399 166.42 78.0951C166.42 91.6394 177.486 102.62 191.135 102.62C204.785 102.62 215.85 91.6399 215.85 78.0951C215.85 91.6394 226.916 102.62 240.565 102.62C254.215 102.62 265.28 91.6399 265.28 78.0951C265.28 91.6394 276.346 102.62 289.995 102.62C303.645 102.62 314.71 91.6399 314.71 78.0951V26.5264C314.708 16.1425 306.225 7.72504 295.76 7.72504Z" fill="white"/>
<path d="M295.76 0H86.5083C71.7678 0 59.7752 11.8992 59.7752 26.5264V78.0951C59.7752 89.8303 66.1276 100.119 75.5973 105.761V217.372C75.5973 221.638 79.0824 225.097 83.3823 225.097H298.885C303.184 225.097 306.67 221.638 306.67 217.372V139.417C306.67 135.151 303.184 131.692 298.885 131.692C294.586 131.692 291.1 135.151 291.1 139.417V209.648H231.906V143.449C231.906 139.184 228.42 135.724 224.121 135.724H158.147C153.847 135.724 150.362 139.184 150.362 143.449V172.032C150.362 176.298 153.847 179.757 158.147 179.757C162.447 179.757 165.932 176.298 165.932 172.032V151.174H216.337V209.648H91.1674V110.316C91.5358 110.328 91.9032 110.344 92.2742 110.344C102.156 110.344 111.024 105.944 116.989 99.0152C122.955 105.944 131.822 110.344 141.704 110.344C151.586 110.344 160.453 105.944 166.419 99.0152C172.385 105.944 181.252 110.344 191.134 110.344C201.016 110.344 209.884 105.944 215.849 99.0152C221.815 105.944 230.682 110.344 240.564 110.344C250.446 110.344 259.313 105.944 265.279 99.0152C271.244 105.944 280.112 110.344 289.993 110.344C307.915 110.344 322.493 95.8767 322.493 78.0956V26.5264C322.493 11.8992 310.501 0 295.76 0ZM306.923 78.0956C306.923 87.3589 299.328 94.8945 289.993 94.8945C280.659 94.8945 273.064 87.3589 273.064 78.0956V55.6476C273.064 51.3818 269.578 47.9226 265.279 47.9226C260.98 47.9226 257.494 51.3818 257.494 55.6476V78.0956C257.494 87.3589 249.898 94.8945 240.564 94.8945C231.229 94.8945 223.634 87.3589 223.634 78.0956V40.9307C223.634 36.6649 220.148 33.2057 215.849 33.2057C211.55 33.2057 208.064 36.6649 208.064 40.9307V78.0946C208.064 87.3578 200.469 94.8935 191.134 94.8935C181.8 94.8935 174.204 87.3578 174.204 78.0946V55.6476C174.204 51.3818 170.719 47.9226 166.419 47.9226C162.119 47.9226 158.634 51.3818 158.634 55.6476V78.0956C158.634 87.3589 151.04 94.8945 141.704 94.8945C132.369 94.8945 124.774 87.3589 124.774 78.0956V40.9307C124.774 36.6649 121.289 33.2057 116.989 33.2057C112.689 33.2057 109.204 36.6649 109.204 40.9307V78.0946C109.204 87.3578 101.609 94.8935 92.2742 94.8935C82.9395 94.8935 75.3448 87.3583 75.3448 78.0956V26.5264C75.3448 20.419 80.3529 15.4496 86.5078 15.4496H295.76C301.915 15.4496 306.923 20.419 306.923 26.5264V78.0956Z" fill="white"/>
<path d="M60.3513 325.797H45.4745L31.0197 299.328H17.9366V317.906H26.5884V325.797H0V317.906H8.33524V268.764H0V260.874H30.0702C38.5812 260.874 44.8063 262.605 48.7453 266.067C52.6843 269.463 54.6538 273.991 54.6538 279.651C54.6538 283.913 53.3877 287.642 50.8555 290.838C48.3936 294.034 44.9118 296.265 40.4101 297.53L51.8051 317.906H60.3513V325.797ZM44.4194 279.851C44.4194 275.922 43.1885 273.092 40.7266 271.361C38.3351 269.63 34.2905 268.764 28.593 268.764H17.9366V291.937H28.6985C34.4664 291.937 38.5109 290.871 40.8321 288.741C43.2237 286.61 44.4194 283.647 44.4194 279.851Z" fill="white"/>
<path d="M133.489 293.335C133.489 302.524 130.324 310.415 123.993 317.007C117.733 323.533 109.327 326.796 98.7765 326.796C88.1552 326.796 79.7848 323.5 73.6653 316.907C67.5458 310.315 64.486 302.458 64.486 293.335C64.486 284.013 67.6513 276.122 73.9818 269.663C80.3124 263.138 88.6476 259.875 98.9875 259.875C109.468 259.875 117.839 263.138 124.099 269.663C130.359 276.189 133.489 284.079 133.489 293.335ZM123.149 293.535C123.149 286.011 120.969 279.884 116.608 275.157C112.317 270.362 106.444 267.965 98.9875 267.965C91.2502 267.965 85.2713 270.429 81.0509 275.356C76.9009 280.217 74.8259 286.177 74.8259 293.235C74.8259 300.16 76.8657 306.153 80.9454 311.214C85.0955 316.208 91.1798 318.705 99.1986 318.705C106.936 318.705 112.844 316.308 116.924 311.514C121.074 306.719 123.149 300.727 123.149 293.535Z" fill="white"/>
<path d="M191.827 325.797H140.233V317.906H148.568V268.764H140.233V260.874H190.983L193.093 279.452L184.758 280.151L182.647 268.764H158.169V289.04H189.4V296.831H158.169V317.906H183.597L185.707 306.52L193.937 307.219L191.827 325.797Z" fill="white"/>
<path d="M250.895 307.219C250.895 313.545 248.539 318.406 243.826 321.802C239.184 325.131 233.135 326.796 225.679 326.796C221.107 326.796 216.781 326.296 212.701 325.297C208.621 324.232 205.386 322.834 202.994 321.102L204.577 307.319L212.279 308.018L212.068 316.108C214.389 317.24 216.605 318.006 218.715 318.406C220.896 318.739 223.041 318.905 225.151 318.905C229.512 318.905 233.17 318.139 236.124 316.608C239.149 315.01 240.661 312.18 240.661 308.118C240.661 303.59 238.973 300.627 235.597 299.228C232.291 297.763 228.563 296.631 224.413 295.832C221.107 295.166 217.836 294.334 214.6 293.335C211.435 292.336 208.762 290.705 206.581 288.441C204.471 286.11 203.416 282.748 203.416 278.353C203.416 271.894 205.702 267.199 210.274 264.27C214.846 261.34 220.122 259.875 226.101 259.875C230.11 259.875 234.084 260.441 238.023 261.573C241.962 262.638 245.022 264.036 247.203 265.768L247.836 279.052L240.133 279.751L238.973 270.662C236.933 269.597 234.858 268.864 232.748 268.465C230.638 268.065 228.633 267.865 226.734 267.865C222.865 267.865 219.7 268.664 217.238 270.262C214.846 271.861 213.651 274.224 213.651 277.354C213.651 281.016 215.128 283.514 218.082 284.845C221.036 286.11 224.307 287.143 227.894 287.942C230.849 288.541 234.119 289.373 237.707 290.439C241.294 291.437 244.389 293.202 246.992 295.732C249.594 298.263 250.895 302.092 250.895 307.219Z" fill="white"/>
<path d="M315.682 307.119C315.682 312.313 313.748 316.741 309.879 320.403C306.081 323.999 300.348 325.797 292.681 325.797H259.446V317.906H267.781V268.764H259.446V260.874H292.259C299.012 260.874 304.147 262.305 307.664 265.169C311.181 267.965 312.939 271.694 312.939 276.355C312.939 279.818 311.849 282.848 309.668 285.445C307.488 287.975 304.604 289.573 301.016 290.239V290.638C305.94 291.304 309.598 293.169 311.989 296.232C314.451 299.295 315.682 302.924 315.682 307.119ZM302.705 278.553C302.705 274.824 301.579 272.26 299.328 270.862C297.077 269.463 294.053 268.764 290.255 268.764H277.382V288.741H289.727C298.379 288.741 302.705 285.345 302.705 278.553ZM305.342 306.719C305.342 299.595 301.122 296.032 292.681 296.032H277.382V317.906H290.677C295.249 317.906 298.836 317.041 301.438 315.309C304.041 313.511 305.342 310.648 305.342 306.719Z" fill="white"/>
<path d="M387 325.797H361.783V317.906H369.907L365.687 307.119H338.044L333.507 317.906H342.475V325.797H317.469V317.906H323.8L345.429 268.764H334.878V260.874H355.558L380.247 317.906H387V325.797ZM362.944 300.327L352.498 273.958H351.865L340.892 300.327H362.944Z" fill="white"/>
<path d="M102.589 369.745H97.7147V368.467H99.5506L98.5588 365.969H92.6925L91.6374 368.467H93.621V369.745H88.7887V368.467H90.0759L94.5706 358.039H92.376V356.76H96.2798L101.197 368.467H102.589V369.745ZM98.1157 364.831L95.7523 358.878H95.6257L93.1567 364.831H98.1157Z" fill="white"/>
<path d="M113.152 365.051C113.152 365.836 113.004 366.609 112.709 367.368C112.427 368.114 111.97 368.733 111.337 369.226C110.718 369.705 109.895 369.945 108.868 369.945C107.447 369.945 106.413 369.445 105.766 368.447V372.861H107.94V374H102.622V372.861H104.289V361.994H102.601V360.855H105.766V362.713C106.048 362.181 106.456 361.708 106.99 361.295C107.525 360.882 108.228 360.676 109.1 360.676C110.31 360.676 111.288 361.062 112.034 361.834C112.779 362.607 113.152 363.679 113.152 365.051ZM111.59 365.17C111.59 364.105 111.316 363.293 110.767 362.733C110.219 362.161 109.536 361.874 108.721 361.874C107.876 361.874 107.18 362.194 106.631 362.833C106.083 363.459 105.794 364.112 105.766 364.791V366.109C105.766 366.855 106.041 367.481 106.589 367.987C107.138 368.493 107.799 368.746 108.573 368.746C109.628 368.746 110.395 368.387 110.873 367.667C111.351 366.948 111.59 366.116 111.59 365.17Z" fill="white"/>
<path d="M124.754 365.051C124.754 365.836 124.606 366.609 124.311 367.368C124.029 368.114 123.572 368.733 122.939 369.226C122.32 369.705 121.497 369.945 120.47 369.945C119.049 369.945 118.015 369.445 117.368 368.447V372.861H119.542V374H114.224V372.861H115.891V361.994H114.203V360.855H117.368V362.713C117.65 362.181 118.057 361.708 118.592 361.295C119.127 360.882 119.83 360.676 120.702 360.676C121.912 360.676 122.89 361.062 123.635 361.834C124.381 362.607 124.754 363.679 124.754 365.051ZM123.192 365.17C123.192 364.105 122.918 363.293 122.369 362.733C121.821 362.161 121.138 361.874 120.322 361.874C119.478 361.874 118.782 362.194 118.233 362.833C117.685 363.459 117.396 364.112 117.368 364.791V366.109C117.368 366.855 117.642 367.481 118.191 367.987C118.74 368.493 119.401 368.746 120.175 368.746C121.23 368.746 121.997 368.387 122.475 367.667C122.953 366.948 123.192 366.116 123.192 365.17Z" fill="white"/>
<path d="M135.819 355.801C136.255 355.801 136.642 355.841 136.98 355.921C137.331 356.001 137.669 356.174 137.992 356.441L138.351 358.498L137.148 358.638L136.747 357.12C136.466 357.013 136.107 356.96 135.671 356.96C134.56 356.96 134.004 357.666 134.004 359.078V360.855H136.431V361.974H134.004V368.606H136.135V369.745H130.881V368.606H132.506V361.974H131.155V360.855H132.506V359.197C132.506 358.159 132.83 357.333 133.477 356.72C134.138 356.108 134.919 355.801 135.819 355.801Z" fill="white"/>
<path d="M146.971 365.29C146.971 366.635 146.549 367.747 145.705 368.626C144.861 369.505 143.715 369.945 142.266 369.945C140.845 369.945 139.726 369.519 138.91 368.666C138.108 367.814 137.708 366.715 137.708 365.37C137.708 364.078 138.101 362.973 138.889 362.054C139.677 361.122 140.831 360.656 142.35 360.656C143.883 360.656 145.037 361.115 145.811 362.034C146.584 362.94 146.971 364.025 146.971 365.29ZM145.41 365.27C145.41 364.258 145.135 363.439 144.587 362.813C144.052 362.174 143.293 361.854 142.308 361.854C141.323 361.854 140.563 362.181 140.029 362.833C139.508 363.486 139.248 364.305 139.248 365.29C139.248 366.262 139.508 367.081 140.029 367.747C140.549 368.413 141.309 368.746 142.308 368.746C143.307 368.746 144.073 368.42 144.608 367.767C145.142 367.101 145.41 366.269 145.41 365.27Z" fill="white"/>
<path d="M153.739 360.696C154.414 360.696 154.948 360.849 155.342 361.155L155.701 363.393L154.498 363.532L154.139 362.014C153.9 361.934 153.661 361.894 153.422 361.894C152.873 361.894 152.416 362.114 152.05 362.554C151.685 362.98 151.502 363.539 151.502 364.232V368.606H153.675V369.745H148.379V368.606H150.025V361.994H148.336V360.855H151.417V362.454C151.6 361.961 151.896 361.548 152.304 361.215C152.726 360.869 153.204 360.696 153.739 360.696Z" fill="white"/>
<path d="M169.478 367.168C169.478 368.034 169.091 368.713 168.317 369.206C167.557 369.698 166.615 369.945 165.489 369.945C164.828 369.945 164.167 369.865 163.506 369.705C162.859 369.532 162.331 369.319 161.923 369.066L162.219 367.048L163.4 367.168L163.337 368.347C163.984 368.64 164.68 368.786 165.426 368.786C166.087 368.786 166.671 368.666 167.177 368.427C167.698 368.174 167.958 367.794 167.958 367.288C167.958 366.795 167.761 366.449 167.367 366.249C166.973 366.049 166.481 365.903 165.89 365.81C165.313 365.716 164.73 365.603 164.139 365.47C163.548 365.337 163.056 365.11 162.662 364.791C162.268 364.458 162.071 363.945 162.071 363.253C162.071 362.307 162.437 361.641 163.168 361.255C163.9 360.869 164.694 360.676 165.553 360.676C166.2 360.676 166.805 360.756 167.367 360.915C167.944 361.075 168.43 361.268 168.823 361.495L169.056 363.572L167.832 363.712L167.6 362.274C167.009 361.981 166.369 361.834 165.679 361.834C165.088 361.834 164.603 361.941 164.223 362.154C163.843 362.367 163.653 362.7 163.653 363.153C163.653 363.619 163.85 363.952 164.244 364.152C164.638 364.338 165.124 364.478 165.7 364.571C166.277 364.651 166.854 364.758 167.431 364.891C168.007 365.024 168.493 365.264 168.887 365.61C169.281 365.943 169.478 366.462 169.478 367.168Z" fill="white"/>
<path d="M188.332 369.745H183.837V368.606H185.209V364.471C185.209 363.512 185.005 362.84 184.597 362.454C184.203 362.054 183.696 361.854 183.077 361.854C182.219 361.854 181.558 362.161 181.094 362.773C180.629 363.386 180.39 363.972 180.376 364.531V368.606H182.001V369.745H177.527V368.606H178.878V364.471C178.878 363.499 178.681 362.82 178.287 362.434C177.893 362.047 177.394 361.854 176.789 361.854C175.917 361.854 175.248 362.154 174.784 362.753C174.334 363.339 174.095 363.919 174.067 364.491V368.606H175.797V369.745H170.944V368.606H172.59V361.994H170.923V360.855H174.067V362.514C174.376 361.981 174.791 361.541 175.312 361.195C175.832 360.849 176.465 360.676 177.211 360.676C177.942 360.676 178.576 360.849 179.11 361.195C179.659 361.541 180.032 362.081 180.228 362.813C180.51 362.187 180.925 361.675 181.473 361.275C182.036 360.875 182.726 360.676 183.541 360.676C184.442 360.676 185.187 360.942 185.778 361.475C186.383 362.007 186.686 362.866 186.686 364.052V368.606H188.332V369.745Z" fill="white"/>
<path d="M190.237 361.535C190.729 361.228 191.25 361.009 191.798 360.875C192.347 360.742 192.931 360.676 193.55 360.676C195.786 360.676 196.905 361.668 196.905 363.652V367.887C196.905 368.526 197.172 368.846 197.707 368.846C197.946 368.846 198.157 368.806 198.34 368.726L198.361 369.645C197.981 369.845 197.573 369.945 197.137 369.945C196.026 369.945 195.456 369.345 195.428 368.147V368.107C195.132 368.586 194.71 369.013 194.162 369.385C193.627 369.758 192.98 369.945 192.22 369.945C191.601 369.945 190.968 369.765 190.321 369.405C189.688 369.046 189.372 368.393 189.372 367.448C189.372 366.329 189.836 365.597 190.764 365.25C191.707 364.891 192.706 364.711 193.761 364.711C194.042 364.711 194.323 364.718 194.605 364.731C194.9 364.744 195.175 364.764 195.428 364.791V363.992C195.428 363.353 195.28 362.833 194.985 362.434C194.703 362.034 194.141 361.834 193.296 361.834C192.607 361.834 192.002 361.954 191.482 362.194L191.123 363.732L189.899 363.592L190.237 361.535ZM195.428 366.409V365.73C195.16 365.716 194.879 365.696 194.584 365.67C194.288 365.643 193.986 365.63 193.676 365.63C192.973 365.63 192.333 365.736 191.756 365.949C191.193 366.149 190.912 366.595 190.912 367.288C190.912 367.861 191.102 368.253 191.482 368.467C191.862 368.68 192.255 368.786 192.663 368.786C193.311 368.786 193.915 368.573 194.478 368.147C195.055 367.721 195.371 367.141 195.428 366.409Z" fill="white"/>
<path d="M203.919 369.745H199.15V368.606H200.796V357.14H199.129V356.001H202.273V368.606H203.919V369.745Z" fill="white"/>
<path d="M209.524 369.745H204.755V368.606H206.401V357.14H204.734V356.001H207.878V368.606H209.524V369.745Z" fill="white"/>
<path d="M225.186 365.071C225.186 365.856 225.045 366.622 224.764 367.368C224.482 368.114 224.032 368.733 223.413 369.226C222.794 369.705 221.992 369.945 221.008 369.945C219.432 369.945 218.335 369.385 217.716 368.267L217.505 369.745H216.028C216.084 369.359 216.147 368.939 216.218 368.487C216.288 368.034 216.323 367.588 216.323 367.148V357.14H214.698V356.001H217.8V362.693C218.082 362.147 218.482 361.675 219.003 361.275C219.538 360.875 220.255 360.676 221.155 360.676C222.323 360.676 223.287 361.055 224.046 361.814C224.806 362.573 225.186 363.659 225.186 365.071ZM223.624 365.21C223.624 364.105 223.35 363.273 222.801 362.713C222.253 362.154 221.584 361.874 220.797 361.874C219.896 361.874 219.179 362.187 218.644 362.813C218.11 363.439 217.828 364.078 217.8 364.731V366.069C217.8 366.815 218.075 367.448 218.623 367.967C219.186 368.486 219.875 368.746 220.691 368.746C221.718 368.746 222.464 368.387 222.928 367.667C223.392 366.948 223.624 366.129 223.624 365.21Z" fill="white"/>
<path d="M237.513 369.745H234.348V368.067C234.052 368.626 233.616 369.079 233.04 369.425C232.477 369.772 231.823 369.945 231.077 369.945C230.163 369.945 229.389 369.678 228.756 369.146C228.137 368.6 227.827 367.734 227.827 366.549V361.994H226.181V360.855H229.304V366.149C229.304 367.108 229.516 367.781 229.938 368.167C230.36 368.553 230.901 368.746 231.562 368.746C232.364 368.746 233.018 368.46 233.525 367.887C234.045 367.315 234.32 366.709 234.348 366.069V361.994H232.385V360.855H235.825V368.606H237.513V369.745Z" fill="white"/>
<path d="M246.24 367.168C246.24 368.034 245.853 368.713 245.079 369.206C244.319 369.698 243.377 369.945 242.251 369.945C241.59 369.945 240.929 369.865 240.268 369.705C239.621 369.532 239.093 369.319 238.685 369.066L238.981 367.048L240.162 367.168L240.099 368.347C240.746 368.64 241.443 368.786 242.188 368.786C242.849 368.786 243.433 368.666 243.94 368.427C244.46 368.174 244.72 367.794 244.72 367.288C244.72 366.795 244.523 366.449 244.13 366.249C243.736 366.049 243.243 365.903 242.652 365.81C242.076 365.716 241.492 365.603 240.901 365.47C240.31 365.337 239.818 365.11 239.424 364.791C239.03 364.458 238.833 363.945 238.833 363.253C238.833 362.307 239.199 361.641 239.93 361.255C240.662 360.869 241.457 360.676 242.315 360.676C242.962 360.676 243.567 360.756 244.13 360.915C244.706 361.075 245.192 361.268 245.586 361.495L245.818 363.572L244.594 363.712L244.362 362.274C243.771 361.981 243.131 361.834 242.441 361.834C241.851 361.834 241.365 361.941 240.985 362.154C240.606 362.367 240.416 362.7 240.416 363.153C240.416 363.619 240.613 363.952 241.006 364.152C241.4 364.338 241.886 364.478 242.463 364.571C243.039 364.651 243.616 364.758 244.193 364.891C244.77 365.024 245.255 365.264 245.649 365.61C246.043 365.943 246.24 366.462 246.24 367.168Z" fill="white"/>
<path d="M249.288 358.558V356.74H250.892V358.558H249.288ZM252.559 369.745H247.79V368.606H249.436V361.994H247.748V360.855H250.913V368.606H252.559V369.745Z" fill="white"/>
<path d="M264.888 369.745H260.141V368.606H261.765V364.471C261.765 363.512 261.561 362.84 261.153 362.454C260.746 362.054 260.225 361.854 259.592 361.854C258.748 361.854 258.066 362.121 257.545 362.653C257.039 363.173 256.771 363.772 256.743 364.451V368.606H258.389V369.745H253.62V368.606H255.266V361.994H253.578V360.855H256.743V362.434C257.418 361.262 258.516 360.676 260.035 360.676C260.949 360.676 261.716 360.942 262.335 361.475C262.954 362.007 263.264 362.866 263.264 364.052V368.606H264.888V369.745Z" fill="white"/>
<path d="M274.263 367.188C274.136 367.947 273.735 368.6 273.06 369.146C272.385 369.678 271.47 369.945 270.317 369.945C268.994 369.945 267.925 369.552 267.109 368.766C266.293 367.98 265.885 366.868 265.885 365.43C265.885 364.045 266.272 362.906 267.046 362.014C267.82 361.122 268.868 360.676 270.19 360.676C271.484 360.676 272.469 361.062 273.144 361.834C273.82 362.607 274.164 363.519 274.178 364.571C274.178 364.917 274.136 365.27 274.052 365.63H267.447C267.531 367.707 268.523 368.746 270.422 368.746C271.168 368.746 271.752 368.58 272.174 368.247C272.596 367.914 272.877 367.474 273.018 366.928L274.263 367.188ZM272.617 364.591C272.687 363.925 272.518 363.299 272.11 362.713C271.717 362.127 271.062 361.834 270.148 361.834C269.276 361.834 268.636 362.107 268.228 362.653C267.82 363.199 267.567 363.845 267.468 364.591H272.617Z" fill="white"/>
<path d="M283.415 367.168C283.415 368.034 283.028 368.713 282.255 369.206C281.495 369.698 280.552 369.945 279.427 369.945C278.766 369.945 278.105 369.865 277.443 369.705C276.796 369.532 276.269 369.319 275.861 369.066L276.156 367.048L277.338 367.168L277.275 368.347C277.922 368.64 278.618 368.786 279.364 368.786C280.025 368.786 280.609 368.666 281.115 368.427C281.636 368.174 281.896 367.794 281.896 367.288C281.896 366.795 281.699 366.449 281.305 366.249C280.911 366.049 280.419 365.903 279.828 365.81C279.251 365.716 278.667 365.603 278.077 365.47C277.486 365.337 276.993 365.11 276.599 364.791C276.206 364.458 276.009 363.945 276.009 363.253C276.009 362.307 276.374 361.641 277.106 361.255C277.837 360.869 278.632 360.676 279.49 360.676C280.137 360.676 280.742 360.756 281.305 360.915C281.882 361.075 282.367 361.268 282.761 361.495L282.993 363.572L281.769 363.712L281.537 362.274C280.946 361.981 280.306 361.834 279.617 361.834C279.026 361.834 278.541 361.941 278.161 362.154C277.781 362.367 277.591 362.7 277.591 363.153C277.591 363.619 277.788 363.952 278.182 364.152C278.576 364.338 279.061 364.478 279.638 364.571C280.215 364.651 280.792 364.758 281.368 364.891C281.945 365.024 282.431 365.264 282.824 365.61C283.218 365.943 283.415 366.462 283.415 367.168Z" fill="white"/>
<path d="M292.668 367.168C292.668 368.034 292.281 368.713 291.507 369.206C290.748 369.698 289.805 369.945 288.68 369.945C288.019 369.945 287.357 369.865 286.696 369.705C286.049 369.532 285.521 369.319 285.113 369.066L285.409 367.048L286.591 367.168L286.527 368.347C287.174 368.64 287.871 368.786 288.616 368.786C289.278 368.786 289.861 368.666 290.368 368.427C290.888 368.174 291.149 367.794 291.149 367.288C291.149 366.795 290.952 366.449 290.558 366.249C290.164 366.049 289.672 365.903 289.081 365.81C288.504 365.716 287.92 365.603 287.329 365.47C286.738 365.337 286.246 365.11 285.852 364.791C285.458 364.458 285.261 363.945 285.261 363.253C285.261 362.307 285.627 361.641 286.358 361.255C287.09 360.869 287.885 360.676 288.743 360.676C289.39 360.676 289.995 360.756 290.558 360.915C291.135 361.075 291.62 361.268 292.014 361.495L292.246 363.572L291.022 363.712L290.79 362.274C290.199 361.981 289.559 361.834 288.87 361.834C288.279 361.834 287.793 361.941 287.414 362.154C287.034 362.367 286.844 362.7 286.844 363.153C286.844 363.619 287.041 363.952 287.435 364.152C287.829 364.338 288.314 364.478 288.891 364.571C289.467 364.651 290.044 364.758 290.621 364.891C291.198 365.024 291.683 365.264 292.077 365.61C292.471 365.943 292.668 366.462 292.668 367.168Z" fill="white"/>
</svg>
