<svg width="367" height="375" viewBox="0 0 367 375" fill="none" xmlns="http://www.w3.org/2000/svg">
<path d="M280.317 7.73416H81.9911C72.073 7.73416 64.0325 16.1621 64.0325 26.5583V78.1873C64.0325 91.7476 74.5197 102.741 87.457 102.741C100.394 102.741 110.881 91.7481 110.881 78.1873C110.881 91.7476 121.369 102.741 134.306 102.741C147.243 102.741 157.73 91.7481 157.73 78.1873C157.73 91.7476 168.218 102.741 181.155 102.741C194.092 102.741 204.579 91.7481 204.579 78.1873C204.579 91.7476 215.067 102.741 228.004 102.741C240.941 102.741 251.428 91.7481 251.428 78.1873C251.428 91.7476 261.916 102.741 274.853 102.741C287.79 102.741 298.277 91.7481 298.277 78.1873V26.5578C298.275 16.1616 290.235 7.73416 280.317 7.73416Z" fill="#262626"/>
<path d="M280.317 0H81.9911C68.0204 0 56.6539 11.9132 56.6539 26.5578V78.1873C56.6539 89.9364 62.6746 100.237 71.6498 105.885V217.629C71.6498 221.9 74.953 225.363 79.0284 225.363H283.278C287.353 225.363 290.657 221.9 290.657 217.629V139.581C290.657 135.311 287.353 131.847 283.278 131.847C279.204 131.847 275.9 135.311 275.9 139.581V209.896H219.797V143.619C219.797 139.348 216.493 135.885 212.418 135.885H149.889C145.814 135.885 142.51 139.348 142.51 143.619V172.235C142.51 176.506 145.813 179.969 149.889 179.969C153.964 179.969 157.267 176.506 157.267 172.235V151.353H205.041V209.896H86.407V110.446C86.7562 110.459 87.1044 110.474 87.456 110.474C96.8222 110.474 105.226 106.069 110.88 99.1321C116.535 106.069 124.939 110.474 134.305 110.474C143.671 110.474 152.074 106.069 157.729 99.1321C163.383 106.069 171.788 110.474 181.154 110.474C190.52 110.474 198.924 106.069 204.578 99.1321C210.232 106.069 218.637 110.474 228.002 110.474C237.369 110.474 245.773 106.069 251.427 99.1321C257.081 106.069 265.485 110.474 274.851 110.474C291.836 110.474 305.654 95.9899 305.654 78.1879V26.5578C305.654 11.9132 294.288 0 280.317 0ZM290.897 78.1879C290.897 87.462 283.698 95.0065 274.851 95.0065C266.004 95.0065 258.805 87.462 258.805 78.1879V55.7133C258.805 51.4425 255.501 47.9791 251.427 47.9791C247.352 47.9791 244.048 51.4425 244.048 55.7133V78.1879C244.048 87.462 236.85 95.0065 228.002 95.0065C219.155 95.0065 211.957 87.462 211.957 78.1879V40.979C211.957 36.7082 208.653 33.2449 204.578 33.2449C200.504 33.2449 197.2 36.7082 197.2 40.979V78.1868C197.2 87.461 190.001 95.0055 181.154 95.0055C172.307 95.0055 165.108 87.461 165.108 78.1868V55.7133C165.108 51.4425 161.805 47.9791 157.729 47.9791C153.654 47.9791 150.351 51.4425 150.351 55.7133V78.1879C150.351 87.462 143.153 95.0065 134.305 95.0065C125.457 95.0065 118.259 87.462 118.259 78.1879V40.979C118.259 36.7082 114.956 33.2449 110.88 33.2449C106.805 33.2449 103.502 36.7082 103.502 40.979V78.1868C103.502 87.461 96.3033 95.0055 87.456 95.0055C78.6087 95.0055 71.4106 87.4615 71.4106 78.1879V26.5578C71.4106 20.4431 76.1571 15.4678 81.9906 15.4678H280.317C286.15 15.4678 290.897 20.4431 290.897 26.5578V78.1879Z" fill="#262626"/>
<path d="M57.2 326.182H43.1L29.4 299.682H17V318.282H25.2V326.182H0V318.282H7.9V269.082H0V261.182H28.5C36.5667 261.182 42.4667 262.915 46.2 266.382C49.9333 269.782 51.8 274.315 51.8 279.982C51.8 284.248 50.6 287.982 48.2 291.182C45.8667 294.382 42.5667 296.615 38.3 297.882L49.1 318.282H57.2V326.182ZM42.1 280.182C42.1 276.248 40.9333 273.415 38.6 271.682C36.3333 269.948 32.5 269.082 27.1 269.082H17V292.282H27.2C32.6667 292.282 36.5 291.215 38.7 289.082C40.9667 286.948 42.1 283.982 42.1 280.182Z" fill="#262626"/>
<path d="M126.519 293.682C126.519 302.882 123.519 310.782 117.519 317.382C111.585 323.915 103.619 327.182 93.6188 327.182C83.5521 327.182 75.6188 323.882 69.8187 317.282C64.0187 310.682 61.1188 302.815 61.1188 293.682C61.1188 284.348 64.1188 276.448 70.1188 269.982C76.1188 263.448 84.0187 260.182 93.8187 260.182C103.752 260.182 111.685 263.448 117.619 269.982C123.552 276.515 126.519 284.415 126.519 293.682ZM116.719 293.882C116.719 286.348 114.652 280.215 110.519 275.482C106.452 270.682 100.885 268.282 93.8187 268.282C86.4854 268.282 80.8187 270.748 76.8187 275.682C72.8854 280.548 70.9187 286.515 70.9187 293.582C70.9187 300.515 72.8521 306.515 76.7188 311.582C80.6521 316.582 86.4188 319.082 94.0188 319.082C101.352 319.082 106.952 316.682 110.819 311.882C114.752 307.082 116.719 301.082 116.719 293.882Z" fill="#262626"/>
<path d="M181.81 326.182H132.91V318.282H140.81V269.082H132.91V261.182H181.01L183.01 279.782L175.11 280.482L173.11 269.082H149.91V289.382H179.51V297.182H149.91V318.282H174.01L176.01 306.882L183.81 307.582L181.81 326.182Z" fill="#262626"/>
<path d="M237.795 307.582C237.795 313.915 235.561 318.782 231.095 322.182C226.695 325.515 220.961 327.182 213.895 327.182C209.561 327.182 205.461 326.682 201.595 325.682C197.728 324.615 194.661 323.215 192.395 321.482L193.895 307.682L201.195 308.382L200.995 316.482C203.195 317.615 205.295 318.382 207.295 318.782C209.361 319.115 211.395 319.282 213.395 319.282C217.528 319.282 220.995 318.515 223.795 316.982C226.661 315.382 228.095 312.548 228.095 308.482C228.095 303.948 226.495 300.982 223.295 299.582C220.161 298.115 216.628 296.982 212.695 296.182C209.561 295.515 206.461 294.682 203.395 293.682C200.395 292.682 197.861 291.048 195.795 288.782C193.795 286.448 192.795 283.082 192.795 278.682C192.795 272.215 194.961 267.515 199.295 264.582C203.628 261.648 208.628 260.182 214.295 260.182C218.095 260.182 221.861 260.748 225.595 261.882C229.328 262.948 232.228 264.348 234.295 266.082L234.895 279.382L227.595 280.082L226.495 270.982C224.561 269.915 222.595 269.182 220.595 268.782C218.595 268.382 216.695 268.182 214.895 268.182C211.228 268.182 208.228 268.982 205.895 270.582C203.628 272.182 202.495 274.548 202.495 277.682C202.495 281.348 203.895 283.848 206.695 285.182C209.495 286.448 212.595 287.482 215.995 288.282C218.795 288.882 221.895 289.715 225.295 290.782C228.695 291.782 231.628 293.548 234.095 296.082C236.561 298.615 237.795 302.448 237.795 307.582Z" fill="#262626"/>
<path d="M299.198 307.482C299.198 312.682 297.365 317.115 293.698 320.782C290.098 324.382 284.665 326.182 277.398 326.182H245.898V318.282H253.798V269.082H245.898V261.182H276.998C283.398 261.182 288.265 262.615 291.598 265.482C294.932 268.282 296.598 272.015 296.598 276.682C296.598 280.148 295.565 283.182 293.498 285.782C291.432 288.315 288.698 289.915 285.298 290.582V290.982C289.965 291.648 293.432 293.515 295.698 296.582C298.032 299.648 299.198 303.282 299.198 307.482ZM286.898 278.882C286.898 275.148 285.832 272.582 283.698 271.182C281.565 269.782 278.698 269.082 275.098 269.082H262.898V289.082H274.598C282.798 289.082 286.898 285.682 286.898 278.882ZM289.398 307.082C289.398 299.948 285.398 296.382 277.398 296.382H262.898V318.282H275.498C279.832 318.282 283.232 317.415 285.698 315.682C288.165 313.882 289.398 311.015 289.398 307.082Z" fill="#262626"/>
<path d="M366.792 326.182H342.892V318.282H350.592L346.592 307.482H320.392L316.092 318.282H324.592V326.182H300.892V318.282H306.892L327.392 269.082H317.392V261.182H336.992L360.392 318.282H366.792V326.182ZM343.992 300.682L334.092 274.282H333.492L323.092 300.682H343.992Z" fill="#262626"/>
<path d="M97.2324 370.182H92.6124V368.902H94.3524L93.4124 366.402H87.8524L86.8524 368.902H88.7324V370.182H84.1524V368.902H85.3724L89.6324 358.462H87.5524V357.182H91.2524L95.9124 368.902H97.2324V370.182ZM92.9924 365.262L90.7524 359.302H90.6324L88.2924 365.262H92.9924Z" fill="#262626"/>
<path d="M107.244 365.482C107.244 366.268 107.104 367.042 106.824 367.802C106.557 368.548 106.124 369.168 105.524 369.662C104.937 370.142 104.157 370.382 103.184 370.382C101.837 370.382 100.857 369.882 100.244 368.882V373.302H102.304V374.442H97.2635V373.302H98.8435V362.422H97.2435V361.282H100.244V363.142C100.51 362.608 100.897 362.135 101.404 361.722C101.91 361.308 102.577 361.102 103.404 361.102C104.55 361.102 105.477 361.488 106.184 362.262C106.89 363.035 107.244 364.108 107.244 365.482ZM105.764 365.602C105.764 364.535 105.504 363.722 104.984 363.162C104.464 362.588 103.817 362.302 103.044 362.302C102.244 362.302 101.584 362.622 101.064 363.262C100.544 363.888 100.27 364.542 100.244 365.222V366.542C100.244 367.288 100.504 367.915 101.024 368.422C101.544 368.928 102.17 369.182 102.904 369.182C103.904 369.182 104.63 368.822 105.084 368.102C105.537 367.382 105.764 366.548 105.764 365.602Z" fill="#262626"/>
<path d="M118.24 365.482C118.24 366.268 118.1 367.042 117.82 367.802C117.553 368.548 117.12 369.168 116.52 369.662C115.933 370.142 115.153 370.382 114.18 370.382C112.833 370.382 111.853 369.882 111.24 368.882V373.302H113.3V374.442H108.26V373.302H109.84V362.422H108.24V361.282H111.24V363.142C111.506 362.608 111.893 362.135 112.4 361.722C112.906 361.308 113.573 361.102 114.4 361.102C115.546 361.102 116.473 361.488 117.18 362.262C117.886 363.035 118.24 364.108 118.24 365.482ZM116.76 365.602C116.76 364.535 116.5 363.722 115.98 363.162C115.46 362.588 114.813 362.302 114.04 362.302C113.24 362.302 112.58 362.622 112.06 363.262C111.54 363.888 111.266 364.542 111.24 365.222V366.542C111.24 367.288 111.5 367.915 112.02 368.422C112.54 368.928 113.166 369.182 113.9 369.182C114.9 369.182 115.626 368.822 116.08 368.102C116.533 367.382 116.76 366.548 116.76 365.602Z" fill="#262626"/>
<path d="M128.727 356.222C129.14 356.222 129.507 356.262 129.827 356.342C130.16 356.422 130.48 356.595 130.787 356.862L131.127 358.922L129.987 359.062L129.607 357.542C129.34 357.435 129 357.382 128.587 357.382C127.534 357.382 127.007 358.088 127.007 359.502V361.282H129.307V362.402H127.007V369.042H129.027V370.182H124.047V369.042H125.587V362.402H124.307V361.282H125.587V359.622C125.587 358.582 125.894 357.755 126.507 357.142C127.134 356.528 127.874 356.222 128.727 356.222Z" fill="#262626"/>
<path d="M139.297 365.722C139.297 367.068 138.897 368.182 138.097 369.062C137.297 369.942 136.21 370.382 134.837 370.382C133.49 370.382 132.43 369.955 131.657 369.102C130.897 368.248 130.517 367.148 130.517 365.802C130.517 364.508 130.89 363.402 131.637 362.482C132.384 361.548 133.477 361.082 134.917 361.082C136.37 361.082 137.464 361.542 138.197 362.462C138.93 363.368 139.297 364.455 139.297 365.722ZM137.817 365.702C137.817 364.688 137.557 363.868 137.037 363.242C136.53 362.602 135.81 362.282 134.877 362.282C133.944 362.282 133.224 362.608 132.717 363.262C132.224 363.915 131.977 364.735 131.977 365.722C131.977 366.695 132.224 367.515 132.717 368.182C133.21 368.848 133.93 369.182 134.877 369.182C135.824 369.182 136.55 368.855 137.057 368.202C137.564 367.535 137.817 366.702 137.817 365.702Z" fill="#262626"/>
<path d="M145.711 361.122C146.351 361.122 146.858 361.275 147.231 361.582L147.571 363.822L146.431 363.962L146.091 362.442C145.864 362.362 145.638 362.322 145.411 362.322C144.891 362.322 144.458 362.542 144.111 362.982C143.764 363.408 143.591 363.968 143.591 364.662V369.042H145.651V370.182H140.631V369.042H142.191V362.422H140.591V361.282H143.511V362.882C143.684 362.388 143.964 361.975 144.351 361.642C144.751 361.295 145.204 361.122 145.711 361.122Z" fill="#262626"/>
<path d="M160.628 367.602C160.628 368.468 160.261 369.148 159.528 369.642C158.808 370.135 157.915 370.382 156.848 370.382C156.221 370.382 155.595 370.302 154.968 370.142C154.355 369.968 153.855 369.755 153.468 369.502L153.748 367.482L154.868 367.602L154.808 368.782C155.421 369.075 156.081 369.222 156.788 369.222C157.415 369.222 157.968 369.102 158.448 368.862C158.941 368.608 159.188 368.228 159.188 367.722C159.188 367.228 159.001 366.882 158.628 366.682C158.255 366.482 157.788 366.335 157.228 366.242C156.681 366.148 156.128 366.035 155.568 365.902C155.008 365.768 154.541 365.542 154.168 365.222C153.795 364.888 153.608 364.375 153.608 363.682C153.608 362.735 153.955 362.068 154.648 361.682C155.341 361.295 156.095 361.102 156.908 361.102C157.521 361.102 158.095 361.182 158.628 361.342C159.175 361.502 159.635 361.695 160.008 361.922L160.228 364.002L159.068 364.142L158.848 362.702C158.288 362.408 157.681 362.262 157.028 362.262C156.468 362.262 156.008 362.368 155.648 362.582C155.288 362.795 155.108 363.128 155.108 363.582C155.108 364.048 155.295 364.382 155.668 364.582C156.041 364.768 156.501 364.908 157.048 365.002C157.595 365.082 158.141 365.188 158.688 365.322C159.235 365.455 159.695 365.695 160.068 366.042C160.441 366.375 160.628 366.895 160.628 367.602Z" fill="#262626"/>
<path d="M178.498 370.182H174.238V369.042H175.538V364.902C175.538 363.942 175.344 363.268 174.958 362.882C174.584 362.482 174.104 362.282 173.518 362.282C172.704 362.282 172.078 362.588 171.638 363.202C171.198 363.815 170.971 364.402 170.958 364.962V369.042H172.498V370.182H168.258V369.042H169.538V364.902C169.538 363.928 169.351 363.248 168.978 362.862C168.604 362.475 168.131 362.282 167.558 362.282C166.731 362.282 166.098 362.582 165.658 363.182C165.231 363.768 165.004 364.348 164.978 364.922V369.042H166.618V370.182H162.018V369.042H163.578V362.422H161.998V361.282H164.978V362.942C165.271 362.408 165.664 361.968 166.158 361.622C166.651 361.275 167.251 361.102 167.958 361.102C168.651 361.102 169.251 361.275 169.758 361.622C170.278 361.968 170.631 362.508 170.818 363.242C171.084 362.615 171.478 362.102 171.998 361.702C172.531 361.302 173.184 361.102 173.958 361.102C174.811 361.102 175.518 361.368 176.078 361.902C176.651 362.435 176.938 363.295 176.938 364.482V369.042H178.498V370.182Z" fill="#262626"/>
<path d="M180.303 361.962C180.77 361.655 181.263 361.435 181.783 361.302C182.303 361.168 182.857 361.102 183.443 361.102C185.563 361.102 186.623 362.095 186.623 364.082V368.322C186.623 368.962 186.877 369.282 187.383 369.282C187.61 369.282 187.81 369.242 187.983 369.162L188.003 370.082C187.643 370.282 187.257 370.382 186.843 370.382C185.79 370.382 185.25 369.782 185.223 368.582V368.542C184.943 369.022 184.543 369.448 184.023 369.822C183.517 370.195 182.903 370.382 182.183 370.382C181.597 370.382 180.997 370.202 180.383 369.842C179.783 369.482 179.483 368.828 179.483 367.882C179.483 366.762 179.923 366.028 180.803 365.682C181.697 365.322 182.643 365.142 183.643 365.142C183.91 365.142 184.177 365.148 184.443 365.162C184.723 365.175 184.983 365.195 185.223 365.222V364.422C185.223 363.782 185.083 363.262 184.803 362.862C184.537 362.462 184.003 362.262 183.203 362.262C182.55 362.262 181.977 362.382 181.483 362.622L181.143 364.162L179.983 364.022L180.303 361.962ZM185.223 366.842V366.162C184.97 366.148 184.703 366.128 184.423 366.102C184.143 366.075 183.857 366.062 183.563 366.062C182.897 366.062 182.29 366.168 181.743 366.382C181.21 366.582 180.943 367.028 180.943 367.722C180.943 368.295 181.123 368.688 181.483 368.902C181.843 369.115 182.217 369.222 182.603 369.222C183.217 369.222 183.79 369.008 184.323 368.582C184.87 368.155 185.17 367.575 185.223 366.842Z" fill="#262626"/>
<path d="M193.271 370.182H188.751V369.042H190.311V357.562H188.731V356.422H191.711V369.042H193.271V370.182Z" fill="#262626"/>
<path d="M198.584 370.182H194.064V369.042H195.624V357.562H194.044V356.422H197.024V369.042H198.584V370.182Z" fill="#262626"/>
<path d="M213.427 365.502C213.427 366.288 213.294 367.055 213.027 367.802C212.761 368.548 212.334 369.168 211.747 369.662C211.161 370.142 210.401 370.382 209.467 370.382C207.974 370.382 206.934 369.822 206.347 368.702L206.147 370.182H204.747C204.801 369.795 204.861 369.375 204.927 368.922C204.994 368.468 205.027 368.022 205.027 367.582V357.562H203.487V356.422H206.427V363.122C206.694 362.575 207.074 362.102 207.567 361.702C208.074 361.302 208.754 361.102 209.607 361.102C210.714 361.102 211.627 361.482 212.347 362.242C213.067 363.002 213.427 364.088 213.427 365.502ZM211.947 365.642C211.947 364.535 211.687 363.702 211.167 363.142C210.647 362.582 210.014 362.302 209.267 362.302C208.414 362.302 207.734 362.615 207.227 363.242C206.721 363.868 206.454 364.508 206.427 365.162V366.502C206.427 367.248 206.687 367.882 207.207 368.402C207.741 368.922 208.394 369.182 209.167 369.182C210.141 369.182 210.847 368.822 211.287 368.102C211.727 367.382 211.947 366.562 211.947 365.642Z" fill="#262626"/>
<path d="M225.111 370.182H222.111V368.502C221.831 369.062 221.418 369.515 220.871 369.862C220.338 370.208 219.718 370.382 219.011 370.382C218.144 370.382 217.411 370.115 216.811 369.582C216.224 369.035 215.931 368.168 215.931 366.982V362.422H214.371V361.282H217.331V366.582C217.331 367.542 217.531 368.215 217.931 368.602C218.331 368.988 218.844 369.182 219.471 369.182C220.231 369.182 220.851 368.895 221.331 368.322C221.824 367.748 222.084 367.142 222.111 366.502V362.422H220.251V361.282H223.511V369.042H225.111V370.182Z" fill="#262626"/>
<path d="M233.382 367.602C233.382 368.468 233.015 369.148 232.282 369.642C231.562 370.135 230.669 370.382 229.602 370.382C228.975 370.382 228.349 370.302 227.722 370.142C227.109 369.968 226.609 369.755 226.222 369.502L226.502 367.482L227.622 367.602L227.562 368.782C228.175 369.075 228.835 369.222 229.542 369.222C230.169 369.222 230.722 369.102 231.202 368.862C231.695 368.608 231.942 368.228 231.942 367.722C231.942 367.228 231.755 366.882 231.382 366.682C231.009 366.482 230.542 366.335 229.982 366.242C229.435 366.148 228.882 366.035 228.322 365.902C227.762 365.768 227.295 365.542 226.922 365.222C226.549 364.888 226.362 364.375 226.362 363.682C226.362 362.735 226.709 362.068 227.402 361.682C228.095 361.295 228.849 361.102 229.662 361.102C230.275 361.102 230.849 361.182 231.382 361.342C231.929 361.502 232.389 361.695 232.762 361.922L232.982 364.002L231.822 364.142L231.602 362.702C231.042 362.408 230.435 362.262 229.782 362.262C229.222 362.262 228.762 362.368 228.402 362.582C228.042 362.795 227.862 363.128 227.862 363.582C227.862 364.048 228.049 364.382 228.422 364.582C228.795 364.768 229.255 364.908 229.802 365.002C230.349 365.082 230.895 365.188 231.442 365.322C231.989 365.455 232.449 365.695 232.822 366.042C233.195 366.375 233.382 366.895 233.382 367.602Z" fill="#262626"/>
<path d="M236.271 358.982V357.162H237.791V358.982H236.271ZM239.371 370.182H234.851V369.042H236.411V362.422H234.811V361.282H237.811V369.042H239.371V370.182Z" fill="#262626"/>
<path d="M251.057 370.182H246.557V369.042H248.097V364.902C248.097 363.942 247.904 363.268 247.517 362.882C247.13 362.482 246.637 362.282 246.037 362.282C245.237 362.282 244.59 362.548 244.097 363.082C243.617 363.602 243.364 364.202 243.337 364.882V369.042H244.897V370.182H240.377V369.042H241.937V362.422H240.337V361.282H243.337V362.862C243.977 361.688 245.017 361.102 246.457 361.102C247.324 361.102 248.05 361.368 248.637 361.902C249.224 362.435 249.517 363.295 249.517 364.482V369.042H251.057V370.182Z" fill="#262626"/>
<path d="M259.942 367.622C259.822 368.382 259.442 369.035 258.802 369.582C258.162 370.115 257.295 370.382 256.202 370.382C254.948 370.382 253.935 369.988 253.162 369.202C252.388 368.415 252.002 367.302 252.002 365.862C252.002 364.475 252.368 363.335 253.102 362.442C253.835 361.548 254.828 361.102 256.082 361.102C257.308 361.102 258.242 361.488 258.882 362.262C259.522 363.035 259.848 363.948 259.862 365.002C259.862 365.348 259.822 365.702 259.742 366.062H253.482C253.562 368.142 254.502 369.182 256.302 369.182C257.008 369.182 257.562 369.015 257.962 368.682C258.362 368.348 258.628 367.908 258.762 367.362L259.942 367.622ZM258.382 365.022C258.448 364.355 258.288 363.728 257.902 363.142C257.528 362.555 256.908 362.262 256.042 362.262C255.215 362.262 254.608 362.535 254.222 363.082C253.835 363.628 253.595 364.275 253.502 365.022H258.382Z" fill="#262626"/>
<path d="M268.616 367.602C268.616 368.468 268.25 369.148 267.516 369.642C266.796 370.135 265.903 370.382 264.836 370.382C264.21 370.382 263.583 370.302 262.956 370.142C262.343 369.968 261.843 369.755 261.456 369.502L261.736 367.482L262.856 367.602L262.796 368.782C263.41 369.075 264.07 369.222 264.776 369.222C265.403 369.222 265.956 369.102 266.436 368.862C266.93 368.608 267.176 368.228 267.176 367.722C267.176 367.228 266.99 366.882 266.616 366.682C266.243 366.482 265.776 366.335 265.216 366.242C264.67 366.148 264.116 366.035 263.556 365.902C262.996 365.768 262.53 365.542 262.156 365.222C261.783 364.888 261.596 364.375 261.596 363.682C261.596 362.735 261.943 362.068 262.636 361.682C263.33 361.295 264.083 361.102 264.896 361.102C265.51 361.102 266.083 361.182 266.616 361.342C267.163 361.502 267.623 361.695 267.996 361.922L268.216 364.002L267.056 364.142L266.836 362.702C266.276 362.408 265.67 362.262 265.016 362.262C264.456 362.262 263.996 362.368 263.636 362.582C263.276 362.795 263.096 363.128 263.096 363.582C263.096 364.048 263.283 364.382 263.656 364.582C264.03 364.768 264.49 364.908 265.036 365.002C265.583 365.082 266.13 365.188 266.676 365.322C267.223 365.455 267.683 365.695 268.056 366.042C268.43 366.375 268.616 366.895 268.616 367.602Z" fill="#262626"/>
<path d="M277.386 367.602C277.386 368.468 277.019 369.148 276.286 369.642C275.566 370.135 274.673 370.382 273.606 370.382C272.979 370.382 272.353 370.302 271.726 370.142C271.113 369.968 270.613 369.755 270.226 369.502L270.506 367.482L271.626 367.602L271.566 368.782C272.179 369.075 272.839 369.222 273.546 369.222C274.173 369.222 274.726 369.102 275.206 368.862C275.699 368.608 275.946 368.228 275.946 367.722C275.946 367.228 275.759 366.882 275.386 366.682C275.013 366.482 274.546 366.335 273.986 366.242C273.439 366.148 272.886 366.035 272.326 365.902C271.766 365.768 271.299 365.542 270.926 365.222C270.553 364.888 270.366 364.375 270.366 363.682C270.366 362.735 270.713 362.068 271.406 361.682C272.099 361.295 272.853 361.102 273.666 361.102C274.279 361.102 274.853 361.182 275.386 361.342C275.933 361.502 276.393 361.695 276.766 361.922L276.986 364.002L275.826 364.142L275.606 362.702C275.046 362.408 274.439 362.262 273.786 362.262C273.226 362.262 272.766 362.368 272.406 362.582C272.046 362.795 271.866 363.128 271.866 363.582C271.866 364.048 272.053 364.382 272.426 364.582C272.799 364.768 273.259 364.908 273.806 365.002C274.353 365.082 274.899 365.188 275.446 365.322C275.993 365.455 276.453 365.695 276.826 366.042C277.199 366.375 277.386 366.895 277.386 367.602Z" fill="#262626"/>
</svg>
