<svg width="153" height="124" viewBox="0 0 153 124" fill="none" xmlns="http://www.w3.org/2000/svg">
<rect width="153" height="124" fill="#096DD9"/>
<g clip-path="url(#clip0)">
<path d="M97.5965 57.7935C97.4265 57.4459 97.0804 57.2265 96.7013 57.2265H94.7008H84.6983V49.0236C84.6983 46.1966 82.4548 43.8967 79.6971 43.8967H69.6946C66.9369 43.8967 64.6934 46.1966 64.6934 49.0236V57.2265H54.6909H52.6904C52.3113 57.2265 51.9652 57.4459 51.7952 57.7935L46.7939 68.0472C46.6389 68.365 46.6559 68.7424 46.8379 69.0449C47.02 69.3473 47.342 69.5309 47.6891 69.5309H51.6901V84.9114C51.6901 87.7383 53.9337 90.0382 56.6914 90.0382H64.6934H72.6953H84.6983H92.7003C95.458 90.0382 97.7015 87.7383 97.7015 84.9114V69.5309H101.703C102.05 69.5309 102.371 69.3463 102.554 69.0438C102.737 68.7413 102.753 68.364 102.598 68.0461L97.5965 57.7935ZM66.6939 49.0236C66.6939 47.3276 68.0402 45.9475 69.6946 45.9475H79.6971C81.3515 45.9475 82.6978 47.3276 82.6978 49.0236V57.2265H78.6708C79.306 56.3672 79.6971 55.3091 79.6971 54.1504C79.6971 53.5834 79.249 53.125 78.6968 53.125H70.6948C70.1427 53.125 69.6946 53.5834 69.6946 54.1504C69.6946 55.3091 70.0857 56.3672 70.7209 57.2265H66.6939V49.0236ZM71.8661 55.1758H77.5245C77.1114 56.3693 75.9992 57.2265 74.6948 57.2265C73.3905 57.2265 72.2792 56.3693 71.8661 55.1758ZM53.3085 59.2772H54.6909H65.6936H83.0799L79.0789 67.4801H49.3075L53.3085 59.2772ZM53.6906 84.9114V69.5309H79.6971C80.0762 69.5309 80.4223 69.3115 80.5923 68.9639L83.6981 62.5953V87.9875H73.6956V76.7084C73.6956 76.3526 73.5155 76.0235 73.2215 75.8359C72.9264 75.6482 72.5573 75.6328 72.2482 75.7907L70.6948 76.5874L69.1415 75.7918C68.8594 75.6472 68.5283 75.6472 68.2462 75.7918L66.6939 76.5874L65.1405 75.7918C64.8304 75.6339 64.4623 75.6492 64.1672 75.8369C63.8732 76.0235 63.6931 76.3526 63.6931 76.7084V87.9875H56.6914C55.037 87.9875 53.6906 86.6073 53.6906 84.9114ZM65.6936 87.9875V78.3675L66.2467 78.6505C66.5278 78.7951 66.8599 78.7951 67.142 78.6505L68.6943 77.8548L70.2477 78.6505C70.5298 78.7951 70.8609 78.7951 71.143 78.6505L71.6951 78.3675V87.9875H65.6936ZM95.7011 84.9114C95.7011 86.6073 94.3547 87.9875 92.7003 87.9875H85.6986V62.5953L88.8043 68.9639C88.9744 69.3115 89.3205 69.5309 89.6996 69.5309H95.7011V84.9114ZM90.3177 67.4801L86.3167 59.2772H94.7008H96.0831L100.084 67.4801H90.3177Z" fill="white"/>
<path d="M71.6951 51.0742C72.2475 51.0742 72.6953 50.6151 72.6953 50.0488C72.6953 49.4825 72.2475 49.0234 71.6951 49.0234C71.1427 49.0234 70.6948 49.4825 70.6948 50.0488C70.6948 50.6151 71.1427 51.0742 71.6951 51.0742Z" fill="white"/>
<path d="M77.6965 51.0742C78.249 51.0742 78.6968 50.6151 78.6968 50.0488C78.6968 49.4825 78.249 49.0234 77.6965 49.0234C77.1441 49.0234 76.6963 49.4825 76.6963 50.0488C76.6963 50.6151 77.1441 51.0742 77.6965 51.0742Z" fill="white"/>
<path d="M54.691 55.1758H56.6914C56.6914 49.5219 52.2043 44.9221 46.689 44.9221V46.9729C51.1011 46.9729 54.691 50.6529 54.691 55.1758Z" fill="white"/>
<path d="M58.6919 45.9474H60.6924C60.6924 38.5976 54.859 32.6177 47.6892 32.6177V34.6684C53.7557 34.6684 58.6919 39.7286 58.6919 45.9474Z" fill="white"/>
<path d="M69.6946 41.846H71.6951C71.6951 36.7571 67.6561 32.6177 62.6929 32.6177V34.6684C66.5538 34.6684 69.6946 37.8891 69.6946 41.846Z" fill="white"/>
<path d="M92.7002 55.1758H94.7007C94.7007 50.6529 98.2906 46.9729 102.703 46.9729V44.9221C97.1873 44.9221 92.7002 49.5219 92.7002 55.1758Z" fill="white"/>
<path d="M101.702 34.6684V32.6177C94.5327 32.6177 88.6992 38.5976 88.6992 45.9474H90.6997C90.6997 39.7286 95.6359 34.6684 101.702 34.6684Z" fill="white"/>
<path d="M86.6988 34.6684V32.6177C81.7355 32.6177 77.6965 36.7571 77.6965 41.846H79.697C79.697 37.8891 82.8378 34.6684 86.6988 34.6684Z" fill="white"/>
<path d="M60.6924 47.998H58.6919V50.0488H60.6924V47.998Z" fill="white"/>
<path d="M60.6924 52.0996H58.6919V54.1503H60.6924V52.0996Z" fill="white"/>
<path d="M90.6997 47.998H88.6992V50.0488H90.6997V47.998Z" fill="white"/>
<path d="M90.6997 52.0996H88.6992V54.1503H90.6997V52.0996Z" fill="white"/>
<path d="M60.6924 32.6177H58.6919V34.6684H60.6924V32.6177Z" fill="white"/>
<path d="M90.6997 32.6177H88.6992V34.6684H90.6997V32.6177Z" fill="white"/>
<path d="M75.6961 39.7952H73.6956V41.8459H75.6961V39.7952Z" fill="white"/>
<path d="M75.6961 35.6936H73.6956V37.7443H75.6961V35.6936Z" fill="white"/>
<path d="M75.6961 31.5923H73.6956V33.643H75.6961V31.5923Z" fill="white"/>
<path d="M65.6936 39.7952H63.6931V41.8459H65.6936V39.7952Z" fill="white"/>
<path d="M85.6985 39.7952H83.698V41.8459H85.6985V39.7952Z" fill="white"/>
</g>
<defs>
<clipPath id="clip0">
<rect width="57.0142" height="58.4459" fill="white" transform="translate(46.1887 31.5923)"/>
</clipPath>
</defs>
</svg>
